<mxfile host="app.diagrams.net" modified="2023-02-24T07:00:12.604Z" agent="5.0 (Windows NT 10.0; Win64; x64) AppleWebKit/537.36 (KHTML, like Gecko) Chrome/110.0.0.0 Safari/537.36" etag="h7mt-u_JK-ZzKY9Enadm" version="20.8.3" type="github">
  <diagram id="C5RBs43oDa-KdzZeNtuy" name="Page-1">
    <mxGraphModel dx="733" dy="1553" grid="1" gridSize="10" guides="1" tooltips="1" connect="1" arrows="1" fold="1" page="1" pageScale="1" pageWidth="827" pageHeight="1169" math="0" shadow="0">
      <root>
        <mxCell id="WIyWlLk6GJQsqaUBKTNV-0" />
        <mxCell id="WIyWlLk6GJQsqaUBKTNV-1" parent="WIyWlLk6GJQsqaUBKTNV-0" />
        <mxCell id="oum3YXco_yq3ggA7mQBt-4" value="是否為會員?" style="text;html=1;strokeColor=none;fillColor=none;align=center;verticalAlign=middle;whiteSpace=wrap;rounded=0;" vertex="1" parent="WIyWlLk6GJQsqaUBKTNV-1">
          <mxGeometry x="160.5" y="-60" width="80" height="30" as="geometry" />
        </mxCell>
        <mxCell id="oum3YXco_yq3ggA7mQBt-11" value="否" style="text;html=1;strokeColor=none;fillColor=none;align=center;verticalAlign=middle;whiteSpace=wrap;rounded=0;" vertex="1" parent="WIyWlLk6GJQsqaUBKTNV-1">
          <mxGeometry x="140" y="-100" width="60" height="30" as="geometry" />
        </mxCell>
        <mxCell id="oum3YXco_yq3ggA7mQBt-12" value="是" style="text;html=1;strokeColor=none;fillColor=none;align=center;verticalAlign=middle;whiteSpace=wrap;rounded=0;" vertex="1" parent="WIyWlLk6GJQsqaUBKTNV-1">
          <mxGeometry x="200" y="-100" width="60" height="30" as="geometry" />
        </mxCell>
        <mxCell id="oum3YXco_yq3ggA7mQBt-16" value="帳號密碼是否正確?" style="text;html=1;strokeColor=none;fillColor=none;align=center;verticalAlign=middle;whiteSpace=wrap;rounded=0;" vertex="1" parent="WIyWlLk6GJQsqaUBKTNV-1">
          <mxGeometry x="300" y="60" width="60" height="30" as="geometry" />
        </mxCell>
        <mxCell id="oum3YXco_yq3ggA7mQBt-20" value="否" style="text;html=1;strokeColor=none;fillColor=none;align=center;verticalAlign=middle;whiteSpace=wrap;rounded=0;" vertex="1" parent="WIyWlLk6GJQsqaUBKTNV-1">
          <mxGeometry x="222.75" y="70" width="60" height="30" as="geometry" />
        </mxCell>
        <mxCell id="oum3YXco_yq3ggA7mQBt-23" value="是" style="text;html=1;strokeColor=none;fillColor=none;align=center;verticalAlign=middle;whiteSpace=wrap;rounded=0;" vertex="1" parent="WIyWlLk6GJQsqaUBKTNV-1">
          <mxGeometry x="262.5" y="110" width="60" height="30" as="geometry" />
        </mxCell>
        <mxCell id="oum3YXco_yq3ggA7mQBt-38" style="edgeStyle=orthogonalEdgeStyle;rounded=0;orthogonalLoop=1;jettySize=auto;html=1;" edge="1" parent="WIyWlLk6GJQsqaUBKTNV-1" source="oum3YXco_yq3ggA7mQBt-27" target="oum3YXco_yq3ggA7mQBt-37">
          <mxGeometry relative="1" as="geometry" />
        </mxCell>
        <mxCell id="oum3YXco_yq3ggA7mQBt-107" style="edgeStyle=orthogonalEdgeStyle;rounded=0;orthogonalLoop=1;jettySize=auto;html=1;exitX=1;exitY=0.5;exitDx=0;exitDy=0;entryX=0.5;entryY=0;entryDx=0;entryDy=0;" edge="1" parent="WIyWlLk6GJQsqaUBKTNV-1" source="oum3YXco_yq3ggA7mQBt-27" target="oum3YXco_yq3ggA7mQBt-85">
          <mxGeometry relative="1" as="geometry" />
        </mxCell>
        <mxCell id="oum3YXco_yq3ggA7mQBt-27" value="" style="rhombus;whiteSpace=wrap;html=1;" vertex="1" parent="WIyWlLk6GJQsqaUBKTNV-1">
          <mxGeometry x="419.25" y="-170" width="40.5" height="40" as="geometry" />
        </mxCell>
        <mxCell id="oum3YXco_yq3ggA7mQBt-28" value="行為者類型" style="text;html=1;strokeColor=none;fillColor=none;align=center;verticalAlign=middle;whiteSpace=wrap;rounded=0;" vertex="1" parent="WIyWlLk6GJQsqaUBKTNV-1">
          <mxGeometry x="360" y="-210" width="80" height="30" as="geometry" />
        </mxCell>
        <mxCell id="oum3YXco_yq3ggA7mQBt-34" value="" style="edgeStyle=orthogonalEdgeStyle;rounded=0;orthogonalLoop=1;jettySize=auto;html=1;" edge="1" parent="WIyWlLk6GJQsqaUBKTNV-1" source="oum3YXco_yq3ggA7mQBt-32" target="oum3YXco_yq3ggA7mQBt-33">
          <mxGeometry relative="1" as="geometry" />
        </mxCell>
        <mxCell id="oum3YXco_yq3ggA7mQBt-32" value="" style="strokeWidth=2;html=1;shape=mxgraph.flowchart.start_2;whiteSpace=wrap;fillColor=#000000;" vertex="1" parent="WIyWlLk6GJQsqaUBKTNV-1">
          <mxGeometry x="426" y="-340" width="27" height="30" as="geometry" />
        </mxCell>
        <mxCell id="oum3YXco_yq3ggA7mQBt-35" value="" style="edgeStyle=orthogonalEdgeStyle;rounded=0;orthogonalLoop=1;jettySize=auto;html=1;" edge="1" parent="WIyWlLk6GJQsqaUBKTNV-1" source="oum3YXco_yq3ggA7mQBt-33" target="oum3YXco_yq3ggA7mQBt-27">
          <mxGeometry relative="1" as="geometry" />
        </mxCell>
        <mxCell id="oum3YXco_yq3ggA7mQBt-33" value="登入畫面" style="rounded=1;whiteSpace=wrap;html=1;" vertex="1" parent="WIyWlLk6GJQsqaUBKTNV-1">
          <mxGeometry x="389.5" y="-260" width="100.5" height="30" as="geometry" />
        </mxCell>
        <mxCell id="oum3YXco_yq3ggA7mQBt-41" style="edgeStyle=orthogonalEdgeStyle;rounded=0;orthogonalLoop=1;jettySize=auto;html=1;exitX=0;exitY=0.5;exitDx=0;exitDy=0;" edge="1" parent="WIyWlLk6GJQsqaUBKTNV-1" source="oum3YXco_yq3ggA7mQBt-37" target="oum3YXco_yq3ggA7mQBt-40">
          <mxGeometry relative="1" as="geometry" />
        </mxCell>
        <mxCell id="oum3YXco_yq3ggA7mQBt-43" style="edgeStyle=orthogonalEdgeStyle;rounded=0;orthogonalLoop=1;jettySize=auto;html=1;exitX=1;exitY=0.5;exitDx=0;exitDy=0;entryX=0.5;entryY=0;entryDx=0;entryDy=0;" edge="1" parent="WIyWlLk6GJQsqaUBKTNV-1" source="oum3YXco_yq3ggA7mQBt-37" target="oum3YXco_yq3ggA7mQBt-42">
          <mxGeometry relative="1" as="geometry" />
        </mxCell>
        <mxCell id="oum3YXco_yq3ggA7mQBt-37" value="" style="rhombus;whiteSpace=wrap;html=1;" vertex="1" parent="WIyWlLk6GJQsqaUBKTNV-1">
          <mxGeometry x="180" y="-100" width="40.5" height="40" as="geometry" />
        </mxCell>
        <mxCell id="oum3YXco_yq3ggA7mQBt-54" style="edgeStyle=orthogonalEdgeStyle;rounded=0;orthogonalLoop=1;jettySize=auto;html=1;exitX=0.5;exitY=1;exitDx=0;exitDy=0;entryX=0.5;entryY=0;entryDx=0;entryDy=0;" edge="1" parent="WIyWlLk6GJQsqaUBKTNV-1" source="oum3YXco_yq3ggA7mQBt-40" target="oum3YXco_yq3ggA7mQBt-52">
          <mxGeometry relative="1" as="geometry" />
        </mxCell>
        <mxCell id="oum3YXco_yq3ggA7mQBt-40" value="註冊會員資料" style="rounded=1;whiteSpace=wrap;html=1;" vertex="1" parent="WIyWlLk6GJQsqaUBKTNV-1">
          <mxGeometry x="60" y="-20" width="100.5" height="30" as="geometry" />
        </mxCell>
        <mxCell id="oum3YXco_yq3ggA7mQBt-46" style="edgeStyle=orthogonalEdgeStyle;rounded=0;orthogonalLoop=1;jettySize=auto;html=1;exitX=0.5;exitY=1;exitDx=0;exitDy=0;entryX=0.5;entryY=0;entryDx=0;entryDy=0;" edge="1" parent="WIyWlLk6GJQsqaUBKTNV-1" source="oum3YXco_yq3ggA7mQBt-42" target="oum3YXco_yq3ggA7mQBt-45">
          <mxGeometry relative="1" as="geometry" />
        </mxCell>
        <mxCell id="oum3YXco_yq3ggA7mQBt-42" value="輸入帳號密碼" style="rounded=1;whiteSpace=wrap;html=1;" vertex="1" parent="WIyWlLk6GJQsqaUBKTNV-1">
          <mxGeometry x="232.5" y="-20" width="100.5" height="30" as="geometry" />
        </mxCell>
        <mxCell id="oum3YXco_yq3ggA7mQBt-44" value="使用者" style="text;html=1;strokeColor=none;fillColor=none;align=center;verticalAlign=middle;whiteSpace=wrap;rounded=0;" vertex="1" parent="WIyWlLk6GJQsqaUBKTNV-1">
          <mxGeometry x="346" y="-170" width="80" height="30" as="geometry" />
        </mxCell>
        <mxCell id="oum3YXco_yq3ggA7mQBt-47" style="edgeStyle=orthogonalEdgeStyle;rounded=0;orthogonalLoop=1;jettySize=auto;html=1;exitX=0;exitY=0.5;exitDx=0;exitDy=0;entryX=0;entryY=0.5;entryDx=0;entryDy=0;" edge="1" parent="WIyWlLk6GJQsqaUBKTNV-1" source="oum3YXco_yq3ggA7mQBt-45" target="oum3YXco_yq3ggA7mQBt-42">
          <mxGeometry relative="1" as="geometry" />
        </mxCell>
        <mxCell id="oum3YXco_yq3ggA7mQBt-50" style="edgeStyle=orthogonalEdgeStyle;rounded=0;orthogonalLoop=1;jettySize=auto;html=1;exitX=0.5;exitY=1;exitDx=0;exitDy=0;entryX=0.5;entryY=0;entryDx=0;entryDy=0;" edge="1" parent="WIyWlLk6GJQsqaUBKTNV-1" source="oum3YXco_yq3ggA7mQBt-45" target="oum3YXco_yq3ggA7mQBt-49">
          <mxGeometry relative="1" as="geometry" />
        </mxCell>
        <mxCell id="oum3YXco_yq3ggA7mQBt-45" value="" style="rhombus;whiteSpace=wrap;html=1;" vertex="1" parent="WIyWlLk6GJQsqaUBKTNV-1">
          <mxGeometry x="262.5" y="70" width="40.5" height="40" as="geometry" />
        </mxCell>
        <mxCell id="oum3YXco_yq3ggA7mQBt-65" style="edgeStyle=orthogonalEdgeStyle;rounded=0;orthogonalLoop=1;jettySize=auto;html=1;exitX=0.5;exitY=1;exitDx=0;exitDy=0;" edge="1" parent="WIyWlLk6GJQsqaUBKTNV-1" source="oum3YXco_yq3ggA7mQBt-49" target="oum3YXco_yq3ggA7mQBt-64">
          <mxGeometry relative="1" as="geometry" />
        </mxCell>
        <mxCell id="oum3YXco_yq3ggA7mQBt-49" value="顯示登入成功&lt;br&gt;歡迎光臨進入首頁" style="rounded=1;whiteSpace=wrap;html=1;" vertex="1" parent="WIyWlLk6GJQsqaUBKTNV-1">
          <mxGeometry x="222.75" y="140" width="120" height="60" as="geometry" />
        </mxCell>
        <mxCell id="oum3YXco_yq3ggA7mQBt-55" style="edgeStyle=orthogonalEdgeStyle;rounded=0;orthogonalLoop=1;jettySize=auto;html=1;exitX=0;exitY=0.5;exitDx=0;exitDy=0;entryX=0;entryY=0.5;entryDx=0;entryDy=0;" edge="1" parent="WIyWlLk6GJQsqaUBKTNV-1" source="oum3YXco_yq3ggA7mQBt-52" target="oum3YXco_yq3ggA7mQBt-40">
          <mxGeometry relative="1" as="geometry" />
        </mxCell>
        <mxCell id="oum3YXco_yq3ggA7mQBt-52" value="" style="rhombus;whiteSpace=wrap;html=1;" vertex="1" parent="WIyWlLk6GJQsqaUBKTNV-1">
          <mxGeometry x="90" y="70" width="40.5" height="40" as="geometry" />
        </mxCell>
        <mxCell id="oum3YXco_yq3ggA7mQBt-56" value="否" style="text;html=1;strokeColor=none;fillColor=none;align=center;verticalAlign=middle;whiteSpace=wrap;rounded=0;" vertex="1" parent="WIyWlLk6GJQsqaUBKTNV-1">
          <mxGeometry x="50" y="70" width="60" height="30" as="geometry" />
        </mxCell>
        <mxCell id="oum3YXco_yq3ggA7mQBt-57" value="註冊資料是否正確?" style="text;html=1;strokeColor=none;fillColor=none;align=center;verticalAlign=middle;whiteSpace=wrap;rounded=0;" vertex="1" parent="WIyWlLk6GJQsqaUBKTNV-1">
          <mxGeometry x="130.5" y="70" width="60" height="30" as="geometry" />
        </mxCell>
        <mxCell id="oum3YXco_yq3ggA7mQBt-61" value="是" style="text;html=1;strokeColor=none;fillColor=none;align=center;verticalAlign=middle;whiteSpace=wrap;rounded=0;" vertex="1" parent="WIyWlLk6GJQsqaUBKTNV-1">
          <mxGeometry x="90" y="110" width="60" height="30" as="geometry" />
        </mxCell>
        <mxCell id="oum3YXco_yq3ggA7mQBt-62" style="edgeStyle=orthogonalEdgeStyle;rounded=0;orthogonalLoop=1;jettySize=auto;html=1;exitX=0.5;exitY=1;exitDx=0;exitDy=0;entryX=0.5;entryY=0;entryDx=0;entryDy=0;" edge="1" parent="WIyWlLk6GJQsqaUBKTNV-1">
          <mxGeometry relative="1" as="geometry">
            <mxPoint x="110.24999999999989" y="110" as="sourcePoint" />
            <mxPoint x="110.24999999999989" y="140" as="targetPoint" />
          </mxGeometry>
        </mxCell>
        <mxCell id="oum3YXco_yq3ggA7mQBt-63" value="" style="strokeWidth=2;html=1;shape=mxgraph.flowchart.start_2;whiteSpace=wrap;fillColor=#FFFFFF;gradientColor=none;gradientDirection=radial;" vertex="1" parent="WIyWlLk6GJQsqaUBKTNV-1">
          <mxGeometry x="96.75" y="140" width="27" height="30" as="geometry" />
        </mxCell>
        <mxCell id="oum3YXco_yq3ggA7mQBt-68" style="edgeStyle=orthogonalEdgeStyle;rounded=0;orthogonalLoop=1;jettySize=auto;html=1;exitX=0;exitY=0.5;exitDx=0;exitDy=0;entryX=1;entryY=0.5;entryDx=0;entryDy=0;entryPerimeter=0;" edge="1" parent="WIyWlLk6GJQsqaUBKTNV-1" source="oum3YXco_yq3ggA7mQBt-64" target="oum3YXco_yq3ggA7mQBt-67">
          <mxGeometry relative="1" as="geometry" />
        </mxCell>
        <mxCell id="oum3YXco_yq3ggA7mQBt-72" style="edgeStyle=orthogonalEdgeStyle;rounded=0;orthogonalLoop=1;jettySize=auto;html=1;exitX=0.5;exitY=1;exitDx=0;exitDy=0;entryX=0.5;entryY=0;entryDx=0;entryDy=0;" edge="1" parent="WIyWlLk6GJQsqaUBKTNV-1" source="oum3YXco_yq3ggA7mQBt-64" target="oum3YXco_yq3ggA7mQBt-69">
          <mxGeometry relative="1" as="geometry" />
        </mxCell>
        <mxCell id="oum3YXco_yq3ggA7mQBt-64" value="" style="rhombus;whiteSpace=wrap;html=1;" vertex="1" parent="WIyWlLk6GJQsqaUBKTNV-1">
          <mxGeometry x="262.5" y="260" width="40.5" height="40" as="geometry" />
        </mxCell>
        <mxCell id="oum3YXco_yq3ggA7mQBt-66" value="是否修改會員資料?" style="text;html=1;strokeColor=none;fillColor=none;align=center;verticalAlign=middle;whiteSpace=wrap;rounded=0;" vertex="1" parent="WIyWlLk6GJQsqaUBKTNV-1">
          <mxGeometry x="300" y="240" width="60" height="30" as="geometry" />
        </mxCell>
        <mxCell id="oum3YXco_yq3ggA7mQBt-67" value="" style="strokeWidth=2;html=1;shape=mxgraph.flowchart.start_2;whiteSpace=wrap;fillColor=#FFFFFF;gradientColor=none;gradientDirection=radial;" vertex="1" parent="WIyWlLk6GJQsqaUBKTNV-1">
          <mxGeometry x="186.75" y="265" width="27" height="30" as="geometry" />
        </mxCell>
        <mxCell id="oum3YXco_yq3ggA7mQBt-73" style="edgeStyle=orthogonalEdgeStyle;rounded=0;orthogonalLoop=1;jettySize=auto;html=1;exitX=0.5;exitY=1;exitDx=0;exitDy=0;entryX=0.5;entryY=0;entryDx=0;entryDy=0;" edge="1" parent="WIyWlLk6GJQsqaUBKTNV-1" source="oum3YXco_yq3ggA7mQBt-69" target="oum3YXco_yq3ggA7mQBt-71">
          <mxGeometry relative="1" as="geometry" />
        </mxCell>
        <mxCell id="oum3YXco_yq3ggA7mQBt-69" value="修改會員資料" style="rounded=1;whiteSpace=wrap;html=1;" vertex="1" parent="WIyWlLk6GJQsqaUBKTNV-1">
          <mxGeometry x="232.5" y="330" width="100.5" height="30" as="geometry" />
        </mxCell>
        <mxCell id="oum3YXco_yq3ggA7mQBt-70" value="修改資料是否正確?" style="text;html=1;strokeColor=none;fillColor=none;align=center;verticalAlign=middle;whiteSpace=wrap;rounded=0;" vertex="1" parent="WIyWlLk6GJQsqaUBKTNV-1">
          <mxGeometry x="300" y="380" width="60" height="30" as="geometry" />
        </mxCell>
        <mxCell id="oum3YXco_yq3ggA7mQBt-77" style="edgeStyle=orthogonalEdgeStyle;rounded=0;orthogonalLoop=1;jettySize=auto;html=1;exitX=0.5;exitY=1;exitDx=0;exitDy=0;entryX=0.5;entryY=0;entryDx=0;entryDy=0;entryPerimeter=0;" edge="1" parent="WIyWlLk6GJQsqaUBKTNV-1" source="oum3YXco_yq3ggA7mQBt-71" target="oum3YXco_yq3ggA7mQBt-74">
          <mxGeometry relative="1" as="geometry" />
        </mxCell>
        <mxCell id="oum3YXco_yq3ggA7mQBt-78" style="edgeStyle=orthogonalEdgeStyle;rounded=0;orthogonalLoop=1;jettySize=auto;html=1;exitX=0;exitY=0.5;exitDx=0;exitDy=0;entryX=0;entryY=0.5;entryDx=0;entryDy=0;" edge="1" parent="WIyWlLk6GJQsqaUBKTNV-1" source="oum3YXco_yq3ggA7mQBt-71" target="oum3YXco_yq3ggA7mQBt-69">
          <mxGeometry relative="1" as="geometry" />
        </mxCell>
        <mxCell id="oum3YXco_yq3ggA7mQBt-71" value="" style="rhombus;whiteSpace=wrap;html=1;" vertex="1" parent="WIyWlLk6GJQsqaUBKTNV-1">
          <mxGeometry x="262.5" y="390" width="40.5" height="40" as="geometry" />
        </mxCell>
        <mxCell id="oum3YXco_yq3ggA7mQBt-74" value="" style="strokeWidth=2;html=1;shape=mxgraph.flowchart.start_2;whiteSpace=wrap;fillColor=#FFFFFF;gradientColor=none;gradientDirection=radial;" vertex="1" parent="WIyWlLk6GJQsqaUBKTNV-1">
          <mxGeometry x="269.25" y="460" width="27" height="30" as="geometry" />
        </mxCell>
        <mxCell id="oum3YXco_yq3ggA7mQBt-75" value="是" style="text;html=1;strokeColor=none;fillColor=none;align=center;verticalAlign=middle;whiteSpace=wrap;rounded=0;" vertex="1" parent="WIyWlLk6GJQsqaUBKTNV-1">
          <mxGeometry x="262.5" y="295" width="60" height="30" as="geometry" />
        </mxCell>
        <mxCell id="oum3YXco_yq3ggA7mQBt-76" value="否" style="text;html=1;strokeColor=none;fillColor=none;align=center;verticalAlign=middle;whiteSpace=wrap;rounded=0;" vertex="1" parent="WIyWlLk6GJQsqaUBKTNV-1">
          <mxGeometry x="222.75" y="260" width="60" height="30" as="geometry" />
        </mxCell>
        <mxCell id="oum3YXco_yq3ggA7mQBt-79" value="是" style="text;html=1;strokeColor=none;fillColor=none;align=center;verticalAlign=middle;whiteSpace=wrap;rounded=0;" vertex="1" parent="WIyWlLk6GJQsqaUBKTNV-1">
          <mxGeometry x="262.5" y="420" width="60" height="30" as="geometry" />
        </mxCell>
        <mxCell id="oum3YXco_yq3ggA7mQBt-80" value="否" style="text;html=1;strokeColor=none;fillColor=none;align=center;verticalAlign=middle;whiteSpace=wrap;rounded=0;" vertex="1" parent="WIyWlLk6GJQsqaUBKTNV-1">
          <mxGeometry x="222.75" y="390" width="60" height="30" as="geometry" />
        </mxCell>
        <mxCell id="oum3YXco_yq3ggA7mQBt-81" value="帳號密碼是否正確?" style="text;html=1;strokeColor=none;fillColor=none;align=center;verticalAlign=middle;whiteSpace=wrap;rounded=0;" vertex="1" parent="WIyWlLk6GJQsqaUBKTNV-1">
          <mxGeometry x="593.25" y="-5" width="60" height="30" as="geometry" />
        </mxCell>
        <mxCell id="oum3YXco_yq3ggA7mQBt-82" value="否" style="text;html=1;strokeColor=none;fillColor=none;align=center;verticalAlign=middle;whiteSpace=wrap;rounded=0;" vertex="1" parent="WIyWlLk6GJQsqaUBKTNV-1">
          <mxGeometry x="516" y="5" width="60" height="30" as="geometry" />
        </mxCell>
        <mxCell id="oum3YXco_yq3ggA7mQBt-83" value="是" style="text;html=1;strokeColor=none;fillColor=none;align=center;verticalAlign=middle;whiteSpace=wrap;rounded=0;" vertex="1" parent="WIyWlLk6GJQsqaUBKTNV-1">
          <mxGeometry x="555.75" y="45" width="60" height="30" as="geometry" />
        </mxCell>
        <mxCell id="oum3YXco_yq3ggA7mQBt-84" style="edgeStyle=orthogonalEdgeStyle;rounded=0;orthogonalLoop=1;jettySize=auto;html=1;exitX=0.5;exitY=1;exitDx=0;exitDy=0;entryX=0.5;entryY=0;entryDx=0;entryDy=0;" edge="1" parent="WIyWlLk6GJQsqaUBKTNV-1" source="oum3YXco_yq3ggA7mQBt-85" target="oum3YXco_yq3ggA7mQBt-88">
          <mxGeometry relative="1" as="geometry" />
        </mxCell>
        <mxCell id="oum3YXco_yq3ggA7mQBt-85" value="輸入帳號密碼" style="rounded=1;whiteSpace=wrap;html=1;" vertex="1" parent="WIyWlLk6GJQsqaUBKTNV-1">
          <mxGeometry x="525.75" y="-85" width="100.5" height="30" as="geometry" />
        </mxCell>
        <mxCell id="oum3YXco_yq3ggA7mQBt-86" style="edgeStyle=orthogonalEdgeStyle;rounded=0;orthogonalLoop=1;jettySize=auto;html=1;exitX=0;exitY=0.5;exitDx=0;exitDy=0;entryX=0;entryY=0.5;entryDx=0;entryDy=0;" edge="1" parent="WIyWlLk6GJQsqaUBKTNV-1" source="oum3YXco_yq3ggA7mQBt-88" target="oum3YXco_yq3ggA7mQBt-85">
          <mxGeometry relative="1" as="geometry" />
        </mxCell>
        <mxCell id="oum3YXco_yq3ggA7mQBt-87" style="edgeStyle=orthogonalEdgeStyle;rounded=0;orthogonalLoop=1;jettySize=auto;html=1;exitX=0.5;exitY=1;exitDx=0;exitDy=0;entryX=0.5;entryY=0;entryDx=0;entryDy=0;" edge="1" parent="WIyWlLk6GJQsqaUBKTNV-1" source="oum3YXco_yq3ggA7mQBt-88" target="oum3YXco_yq3ggA7mQBt-90">
          <mxGeometry relative="1" as="geometry" />
        </mxCell>
        <mxCell id="oum3YXco_yq3ggA7mQBt-88" value="" style="rhombus;whiteSpace=wrap;html=1;" vertex="1" parent="WIyWlLk6GJQsqaUBKTNV-1">
          <mxGeometry x="555.75" y="5" width="40.5" height="40" as="geometry" />
        </mxCell>
        <mxCell id="oum3YXco_yq3ggA7mQBt-89" style="edgeStyle=orthogonalEdgeStyle;rounded=0;orthogonalLoop=1;jettySize=auto;html=1;exitX=0.5;exitY=1;exitDx=0;exitDy=0;" edge="1" parent="WIyWlLk6GJQsqaUBKTNV-1" source="oum3YXco_yq3ggA7mQBt-90" target="oum3YXco_yq3ggA7mQBt-93">
          <mxGeometry relative="1" as="geometry" />
        </mxCell>
        <mxCell id="oum3YXco_yq3ggA7mQBt-90" value="顯示登入成功&lt;br&gt;歡迎光臨進入首頁" style="rounded=1;whiteSpace=wrap;html=1;" vertex="1" parent="WIyWlLk6GJQsqaUBKTNV-1">
          <mxGeometry x="516" y="75" width="120" height="60" as="geometry" />
        </mxCell>
        <mxCell id="oum3YXco_yq3ggA7mQBt-91" style="edgeStyle=orthogonalEdgeStyle;rounded=0;orthogonalLoop=1;jettySize=auto;html=1;exitX=0;exitY=0.5;exitDx=0;exitDy=0;entryX=1;entryY=0.5;entryDx=0;entryDy=0;entryPerimeter=0;" edge="1" parent="WIyWlLk6GJQsqaUBKTNV-1" source="oum3YXco_yq3ggA7mQBt-93" target="oum3YXco_yq3ggA7mQBt-95">
          <mxGeometry relative="1" as="geometry" />
        </mxCell>
        <mxCell id="oum3YXco_yq3ggA7mQBt-92" style="edgeStyle=orthogonalEdgeStyle;rounded=0;orthogonalLoop=1;jettySize=auto;html=1;exitX=0.5;exitY=1;exitDx=0;exitDy=0;entryX=0.5;entryY=0;entryDx=0;entryDy=0;" edge="1" parent="WIyWlLk6GJQsqaUBKTNV-1" source="oum3YXco_yq3ggA7mQBt-93" target="oum3YXco_yq3ggA7mQBt-97">
          <mxGeometry relative="1" as="geometry" />
        </mxCell>
        <mxCell id="oum3YXco_yq3ggA7mQBt-93" value="" style="rhombus;whiteSpace=wrap;html=1;" vertex="1" parent="WIyWlLk6GJQsqaUBKTNV-1">
          <mxGeometry x="555.75" y="195" width="40.5" height="40" as="geometry" />
        </mxCell>
        <mxCell id="oum3YXco_yq3ggA7mQBt-94" value="是否查詢會員資料?" style="text;html=1;strokeColor=none;fillColor=none;align=center;verticalAlign=middle;whiteSpace=wrap;rounded=0;" vertex="1" parent="WIyWlLk6GJQsqaUBKTNV-1">
          <mxGeometry x="593.25" y="175" width="60" height="30" as="geometry" />
        </mxCell>
        <mxCell id="oum3YXco_yq3ggA7mQBt-95" value="" style="strokeWidth=2;html=1;shape=mxgraph.flowchart.start_2;whiteSpace=wrap;fillColor=#FFFFFF;gradientColor=none;gradientDirection=radial;" vertex="1" parent="WIyWlLk6GJQsqaUBKTNV-1">
          <mxGeometry x="480" y="200" width="27" height="30" as="geometry" />
        </mxCell>
        <mxCell id="oum3YXco_yq3ggA7mQBt-96" style="edgeStyle=orthogonalEdgeStyle;rounded=0;orthogonalLoop=1;jettySize=auto;html=1;exitX=0.5;exitY=1;exitDx=0;exitDy=0;entryX=0.5;entryY=0;entryDx=0;entryDy=0;" edge="1" parent="WIyWlLk6GJQsqaUBKTNV-1" source="oum3YXco_yq3ggA7mQBt-97" target="oum3YXco_yq3ggA7mQBt-101">
          <mxGeometry relative="1" as="geometry" />
        </mxCell>
        <mxCell id="oum3YXco_yq3ggA7mQBt-97" value="查詢會員資料" style="rounded=1;whiteSpace=wrap;html=1;" vertex="1" parent="WIyWlLk6GJQsqaUBKTNV-1">
          <mxGeometry x="525.75" y="265" width="100.5" height="30" as="geometry" />
        </mxCell>
        <mxCell id="oum3YXco_yq3ggA7mQBt-98" value="是否繼續查詢動作?" style="text;html=1;strokeColor=none;fillColor=none;align=center;verticalAlign=middle;whiteSpace=wrap;rounded=0;" vertex="1" parent="WIyWlLk6GJQsqaUBKTNV-1">
          <mxGeometry x="593.25" y="315" width="60" height="30" as="geometry" />
        </mxCell>
        <mxCell id="oum3YXco_yq3ggA7mQBt-99" style="edgeStyle=orthogonalEdgeStyle;rounded=0;orthogonalLoop=1;jettySize=auto;html=1;exitX=0.5;exitY=1;exitDx=0;exitDy=0;entryX=0.5;entryY=0;entryDx=0;entryDy=0;entryPerimeter=0;" edge="1" parent="WIyWlLk6GJQsqaUBKTNV-1" source="oum3YXco_yq3ggA7mQBt-101" target="oum3YXco_yq3ggA7mQBt-102">
          <mxGeometry relative="1" as="geometry" />
        </mxCell>
        <mxCell id="oum3YXco_yq3ggA7mQBt-100" style="edgeStyle=orthogonalEdgeStyle;rounded=0;orthogonalLoop=1;jettySize=auto;html=1;exitX=0;exitY=0.5;exitDx=0;exitDy=0;entryX=0;entryY=0.5;entryDx=0;entryDy=0;" edge="1" parent="WIyWlLk6GJQsqaUBKTNV-1" source="oum3YXco_yq3ggA7mQBt-101" target="oum3YXco_yq3ggA7mQBt-97">
          <mxGeometry relative="1" as="geometry" />
        </mxCell>
        <mxCell id="oum3YXco_yq3ggA7mQBt-101" value="" style="rhombus;whiteSpace=wrap;html=1;" vertex="1" parent="WIyWlLk6GJQsqaUBKTNV-1">
          <mxGeometry x="555.75" y="325" width="40.5" height="40" as="geometry" />
        </mxCell>
        <mxCell id="oum3YXco_yq3ggA7mQBt-102" value="" style="strokeWidth=2;html=1;shape=mxgraph.flowchart.start_2;whiteSpace=wrap;fillColor=#FFFFFF;gradientColor=none;gradientDirection=radial;" vertex="1" parent="WIyWlLk6GJQsqaUBKTNV-1">
          <mxGeometry x="562.5" y="395" width="27" height="30" as="geometry" />
        </mxCell>
        <mxCell id="oum3YXco_yq3ggA7mQBt-103" value="是" style="text;html=1;strokeColor=none;fillColor=none;align=center;verticalAlign=middle;whiteSpace=wrap;rounded=0;" vertex="1" parent="WIyWlLk6GJQsqaUBKTNV-1">
          <mxGeometry x="555.75" y="230" width="60" height="30" as="geometry" />
        </mxCell>
        <mxCell id="oum3YXco_yq3ggA7mQBt-104" value="否" style="text;html=1;strokeColor=none;fillColor=none;align=center;verticalAlign=middle;whiteSpace=wrap;rounded=0;" vertex="1" parent="WIyWlLk6GJQsqaUBKTNV-1">
          <mxGeometry x="516" y="195" width="60" height="30" as="geometry" />
        </mxCell>
        <mxCell id="oum3YXco_yq3ggA7mQBt-105" value="否" style="text;html=1;strokeColor=none;fillColor=none;align=center;verticalAlign=middle;whiteSpace=wrap;rounded=0;" vertex="1" parent="WIyWlLk6GJQsqaUBKTNV-1">
          <mxGeometry x="555.75" y="355" width="60" height="30" as="geometry" />
        </mxCell>
        <mxCell id="oum3YXco_yq3ggA7mQBt-106" value="是" style="text;html=1;strokeColor=none;fillColor=none;align=center;verticalAlign=middle;whiteSpace=wrap;rounded=0;" vertex="1" parent="WIyWlLk6GJQsqaUBKTNV-1">
          <mxGeometry x="516" y="325" width="60" height="30" as="geometry" />
        </mxCell>
        <mxCell id="oum3YXco_yq3ggA7mQBt-108" value="管理者" style="text;html=1;strokeColor=none;fillColor=none;align=center;verticalAlign=middle;whiteSpace=wrap;rounded=0;" vertex="1" parent="WIyWlLk6GJQsqaUBKTNV-1">
          <mxGeometry x="453" y="-170" width="80" height="30" as="geometry" />
        </mxCell>
      </root>
    </mxGraphModel>
  </diagram>
</mxfile>
